<svg width="514" height="486" viewBox="0 0 514 486" fill="none" xmlns="http://www.w3.org/2000/svg">
<path d="M41.5376 415.481C41.5376 415.481 -6.01697 378.757 0.638714 297.18C8.00751 206.85 38.2517 196.978 61.1412 183.717C87.1207 168.662 109.353 166.062 139.15 91.6591C178.483 -6.56858 249.262 0.0951097 276.053 0.0951097C367.023 0.0951097 365.933 106.237 409.852 159.069C451.198 208.792 541.553 316.579 439.215 412.059C385.928 461.765 126.747 477.577 41.5376 415.481Z" fill="#B3FFD1"/>
<path d="M421.946 218.599C463.995 218.599 498.081 178.488 498.081 129.009C498.081 79.5304 463.995 39.4198 421.946 39.4198C379.898 39.4198 345.812 79.5304 345.812 129.009C345.812 178.488 379.898 218.599 421.946 218.599Z" fill="#32B768"/>
<path d="M410.942 165.402L382.18 138.303C379.174 135.457 378.223 130.389 380.237 126.523C382.67 121.833 387.941 120.863 391.465 124.186L417.612 148.817L451.268 100.197C453.911 96.3797 458.693 95.8039 461.937 98.9136C465.181 102.023 465.67 107.65 463.027 111.468L427.078 163.379C423.079 169.154 415.878 170.059 410.942 165.402Z" fill="white"/>
<path d="M347.657 461.765H110.849C105.256 461.765 100.74 456.434 100.74 449.869V227.532H357.767V449.869C357.767 456.434 353.25 461.765 347.657 461.765Z" fill="#32B768"/>
<path d="M308.996 165.995H254.562H203.959H149.511L100.74 227.532H203.959H254.562H357.767L308.996 165.995Z" fill="#0E7F3D"/>
<path d="M308.996 165.997H149.511V135.508C149.511 130.556 152.922 126.558 157.117 126.558H301.389C305.598 126.558 308.996 130.572 308.996 135.508V165.997Z" fill="#32B768"/>
<path d="M145.022 343.794C151.509 343.794 156.768 335.264 156.768 324.741C156.768 314.218 151.509 305.688 145.022 305.688C138.536 305.688 133.277 314.218 133.277 324.741C133.277 335.264 138.536 343.794 145.022 343.794Z" fill="#0E7F3D"/>
<path d="M145.022 411.668C143.204 411.668 141.736 409.94 141.736 407.801V334.155H148.294V407.817C148.294 409.94 146.826 411.668 145.022 411.668Z" fill="#0E7F3D"/>
<path d="M182.118 411.668C180.3 411.668 178.832 409.94 178.832 407.801V334.155H185.39V407.817C185.39 409.94 183.922 411.668 182.118 411.668Z" fill="#0E7F3D"/>
<path d="M193.863 309.326V329.531C193.863 336.754 188.871 342.612 182.747 342.612H181.488C175.35 342.612 170.372 336.754 170.372 329.531V309.326C170.372 309.129 170.386 308.948 170.428 308.767C170.652 307.681 171.463 306.858 172.456 306.858C173.448 306.858 174.273 307.681 174.497 308.767C174.539 308.948 174.553 309.129 174.553 309.326V324.628C174.553 326.273 175.7 327.622 177.098 327.622H177.517C178.916 327.622 180.062 326.273 180.062 324.628V309.326C180.062 309.129 180.076 308.948 180.118 308.767C180.342 307.681 181.167 306.858 182.16 306.858C183.152 306.858 183.963 307.681 184.187 308.767C184.229 308.948 184.243 309.129 184.243 309.326V324.726C184.243 326.388 185.39 327.737 186.802 327.737H187.165C188.578 327.737 189.71 326.388 189.71 324.726V309.326C189.71 309.129 189.724 308.948 189.766 308.767C189.99 307.681 190.815 306.858 191.808 306.858C192.8 306.858 193.625 307.681 193.849 308.767C193.849 308.931 193.863 309.129 193.863 309.326Z" fill="#0E7F3D"/>
<path d="M418.745 473.544L390.542 485.966L341.841 481.705L330.403 478.233L327.453 477.345L339.771 469.973L406.188 472.984L418.507 473.527L418.745 473.544Z" fill="#E06738"/>
<path d="M492.489 456.795L451.17 453.998L419.71 461.764L406.175 473.002L405.895 473.249L390.528 485.984L342.177 474.532L330.403 478.267L305.962 486L274.235 477.049L219.256 482.018L219.494 450.296L202.183 422.489H229.24C237.433 417.29 249.374 415.859 249.374 415.859L265.93 425.698L416.913 426.669L444.067 416.583L492.489 456.795Z" fill="#FDF0B9"/>
<path d="M421.443 387.08H258.113C256.659 397.578 258.113 427.441 258.113 427.441C258.113 444.223 294.677 457.814 339.785 457.814C384.893 457.814 421.457 444.207 421.457 427.441C422.575 403.649 421.443 387.08 421.443 387.08Z" fill="#EDB82C"/>
<path d="M419.416 382.194C427.162 381.717 433.496 391.325 430.882 397.166C428.267 403.008 418.619 407.401 415.431 408.503C408.188 411.02 413.431 424.15 399.743 420.267C392.667 418.26 390.598 423.887 386.669 428.412C382.754 432.937 372.295 429.777 362.493 424.792C352.691 419.807 344.19 433.841 334.724 432.492C325.258 431.143 316.756 425.697 310.548 428.412C304.34 431.127 300.746 428.412 293.224 419.807C285.701 411.201 278.192 422.982 271.327 419.807C264.461 416.631 267.076 408.947 259.568 404.867C252.045 400.786 244.536 399.289 244.536 394.221C244.536 382.77 259.442 379.907 259.442 379.907L419.416 382.194Z" fill="#E06738"/>
<path d="M421.443 369.113C421.443 404.324 384.879 411.991 339.771 411.991C294.663 411.991 258.099 404.324 258.099 369.113C258.099 333.902 294.663 305.355 339.771 305.355C384.879 305.355 421.443 333.902 421.443 369.113Z" fill="#EDB82C"/>
<path d="M299.124 325.398C300.522 325.398 301.655 324.727 301.655 323.901C301.655 323.074 300.522 322.403 299.124 322.403C297.727 322.403 296.594 323.074 296.594 323.901C296.594 324.727 297.727 325.398 299.124 325.398Z" fill="white"/>
<path d="M315.176 336.932C316.574 336.932 317.707 336.262 317.707 335.435C317.707 334.608 316.574 333.937 315.176 333.937C313.778 333.937 312.645 334.608 312.645 335.435C312.645 336.262 313.778 336.932 315.176 336.932Z" fill="white"/>
<path d="M325.719 325.398C327.117 325.398 328.25 324.727 328.25 323.901C328.25 323.074 327.117 322.403 325.719 322.403C324.321 322.403 323.188 323.074 323.188 323.901C323.188 324.727 324.321 325.398 325.719 325.398Z" fill="white"/>
<path d="M343.477 314.687C344.875 314.687 346.008 314.016 346.008 313.19C346.008 312.363 344.875 311.692 343.477 311.692C342.079 311.692 340.946 312.363 340.946 313.19C340.946 314.016 342.079 314.687 343.477 314.687Z" fill="white"/>
<path d="M357.291 329.824C358.689 329.824 359.822 329.154 359.822 328.327C359.822 327.5 358.689 326.83 357.291 326.83C355.894 326.83 354.76 327.5 354.76 328.327C354.76 329.154 355.894 329.824 357.291 329.824Z" fill="white"/>
<path d="M384.586 329.824C385.983 329.824 387.116 329.154 387.116 328.327C387.116 327.5 385.983 326.83 384.586 326.83C383.188 326.83 382.055 327.5 382.055 328.327C382.055 329.154 383.188 329.824 384.586 329.824Z" fill="white"/>
<path d="M287.351 350.637C288.748 350.637 289.881 349.967 289.881 349.14C289.881 348.313 288.748 347.643 287.351 347.643C285.953 347.643 284.82 348.313 284.82 349.14C284.82 349.967 285.953 350.637 287.351 350.637Z" fill="white"/>
<path d="M317.357 364.673C318.755 364.673 319.888 364.002 319.888 363.175C319.888 362.349 318.755 361.678 317.357 361.678C315.959 361.678 314.826 362.349 314.826 363.175C314.826 364.002 315.959 364.673 317.357 364.673Z" fill="white"/>
<path d="M340.932 344.847C342.329 344.847 343.463 344.176 343.463 343.349C343.463 342.522 342.329 341.852 340.932 341.852C339.534 341.852 338.401 342.522 338.401 343.349C338.401 344.176 339.534 344.847 340.932 344.847Z" fill="white"/>
<path d="M357.291 360.179C358.689 360.179 359.822 359.509 359.822 358.682C359.822 357.855 358.689 357.185 357.291 357.185C355.894 357.185 354.76 357.855 354.76 358.682C354.76 359.509 355.894 360.179 357.291 360.179Z" fill="white"/>
<path d="M382.502 354.158C383.9 354.158 385.033 353.488 385.033 352.661C385.033 351.834 383.9 351.164 382.502 351.164C381.104 351.164 379.971 351.834 379.971 352.661C379.971 353.488 381.104 354.158 382.502 354.158Z" fill="white"/>
<path d="M249.025 452.649L274.221 437.446L304.354 452.978C304.354 452.978 316.337 451.398 321.874 450.79C327.411 450.181 335.241 449.243 338.401 451.25C341.575 453.258 346.833 457.766 350.804 457.536C354.775 457.305 369.233 448.815 375.05 451.25C380.866 453.686 399.575 452.336 405.895 451.25L374.518 464.117H274.333L249.025 452.649Z" fill="#FDF0B9"/>
<path d="M492.489 456.796L454.163 474.418L418.745 473.546L418.507 473.53L406.188 472.987L419.724 461.765L451.184 453.999L492.489 456.796Z" fill="#E06738"/>
<path d="M406.93 443.979C406.636 443.979 406.357 443.765 406.259 443.403C406.147 442.976 406.343 442.515 406.706 442.367C406.874 442.301 423.248 436.115 435.958 436.69C436.349 436.707 436.643 437.085 436.629 437.546C436.615 438.007 436.265 438.319 435.902 438.336C423.429 437.76 407.294 443.864 407.126 443.93C407.07 443.979 407 443.979 406.93 443.979Z" fill="black"/>
<path d="M267.971 440.886C267.86 440.886 267.734 440.853 267.622 440.787C255.527 432.758 243.055 432.363 242.929 432.363C242.537 432.346 242.23 431.984 242.244 431.524C242.258 431.063 242.593 430.767 242.957 430.717C243.083 430.717 255.905 431.129 268.307 439.356C268.643 439.586 268.768 440.08 268.573 440.474C268.447 440.738 268.209 440.886 267.971 440.886Z" fill="black"/>
<path d="M236.371 455.612C236.315 455.612 236.273 455.612 236.217 455.596L219.354 451.071C218.977 450.973 218.739 450.528 218.823 450.084C218.907 449.64 219.284 449.36 219.662 449.459L236.525 453.984C236.902 454.082 237.14 454.527 237.056 454.971C236.972 455.349 236.679 455.612 236.371 455.612Z" fill="black"/>
<path d="M55.786 90.2261C55.0589 86.8532 49.5777 85.3888 42.2229 86.0963C40.7827 86.2279 39.4404 85.2901 38.8671 83.7434C35.9308 75.7799 32.2254 70.7945 29.359 71.6336C26.4925 72.4892 25.2481 78.939 25.8493 87.5936C25.9612 89.2883 25.1642 90.8678 23.8498 91.5424C17.0823 94.9977 12.8456 99.3579 13.5587 102.731C14.2858 106.104 19.7669 107.568 27.1218 106.861C28.562 106.729 29.9043 107.667 30.4776 109.214C33.4139 117.177 37.1193 122.162 39.9857 121.323C42.8521 120.468 44.0966 114.018 43.4953 105.363C43.3834 103.669 44.1805 102.089 45.4948 101.415C52.2624 97.9429 56.513 93.5991 55.786 90.2261Z" fill="#32B768"/>
<path d="M513.966 304.222C514.441 300.8 509.897 296.867 502.92 294.087C501.564 293.544 500.641 292.046 500.641 290.352C500.627 281.681 498.935 275.363 496.012 274.787C493.104 274.227 489.762 279.575 487.399 287.785C486.938 289.381 485.665 290.467 484.225 290.467C476.856 290.483 471.487 292.474 470.998 295.913C470.522 299.335 475.067 303.268 482.044 306.048C483.4 306.591 484.323 308.089 484.323 309.783C484.337 318.454 486.029 324.773 488.951 325.348C491.86 325.908 495.201 320.561 497.564 312.35C498.026 310.754 499.298 309.668 500.739 309.668C508.121 309.652 513.491 307.661 513.966 304.222Z" fill="#EDB82C"/>
<path d="M24.3949 414.033C33.9763 414.033 41.7436 404.893 41.7436 393.619C41.7436 382.344 33.9763 373.204 24.3949 373.204C14.8134 373.204 7.04614 382.344 7.04614 393.619C7.04614 404.893 14.8134 414.033 24.3949 414.033Z" fill="#32B768"/>
</svg>
